<svg width="365" height="382" viewBox="0 0 365 382" fill="none" xmlns="http://www.w3.org/2000/svg">
<path d="M263.084 328.79H228.074C226.909 328.79 225.992 327.855 225.992 326.709V325.066C225.992 323.901 226.928 322.984 228.074 322.984H263.084C264.249 322.984 265.166 323.92 265.166 325.066V326.709C265.147 327.855 264.211 328.79 263.084 328.79Z" fill="#B7B7C4"/>
<path d="M250.956 230.119H240.164V322.965H250.956V230.119Z" fill="#735639"/>
<path d="M254.986 72.1619L264.402 71.2642L266.312 89.7722C266.312 89.7722 263.657 90.6699 260.907 90.8227C258.099 90.9755 255.502 90.8227 255.502 90.8227L254.986 72.1619Z" fill="#0C0454"/>
<path d="M219.326 44.7152C216.232 51.1328 209.394 78.9425 209.394 78.9425C209.165 79.5346 209.394 80.2031 209.948 80.5851C211.743 81.8266 215.964 85.7421 224.177 88.3588C228.169 89.6194 237.949 91.262 242.437 90.9373C243.258 90.8609 243.85 90.1542 243.85 90.1542L248.396 26.3791C229.143 25.405 221.16 40.9524 219.326 44.7152Z" fill="#110580"/>
<path d="M226.832 80.5851C223.7 80.5851 221.198 76.173 221.198 70.5767C221.198 64.9804 223.662 60.5682 226.832 60.5682C229.965 60.5682 232.467 64.9804 232.467 70.5767C232.467 76.2303 229.965 80.5851 226.832 80.5851ZM226.832 61.9625C224.521 61.9625 222.573 65.9163 222.573 70.6149C222.573 75.3135 224.521 79.2672 226.832 79.2672C229.143 79.2672 231.092 75.3135 231.092 70.6149C231.092 65.9163 229.143 61.9625 226.832 61.9625Z" fill="white"/>
<path d="M248.53 82.5333C264.553 82.5333 277.543 70.2791 277.543 55.1629C277.543 40.0466 264.553 27.7925 248.53 27.7925C232.507 27.7925 219.517 40.0466 219.517 55.1629C219.517 70.2791 232.507 82.5333 248.53 82.5333Z" fill="#FCB58A"/>
<path d="M261.327 79.7064C260.888 68.8767 260.315 55.1056 260.315 54.6854C260.315 54.6854 254.184 53.0428 250.688 49.7575C249.6 48.707 248.816 47.6756 248.301 46.6633C248.721 48.2295 249.428 49.8721 250.879 51.5529C254.012 55.182 258.787 57.7414 258.787 57.7414C258.749 58.1234 259.169 70.2901 258.558 80.8142C259.551 80.4895 260.429 80.1075 261.327 79.7064Z" fill="#E3996D"/>
<path d="M326.114 257.624C310.624 257.624 298.076 258.177 297.999 258.865C298.076 259.534 310.624 260.107 326.114 260.107C341.566 260.107 354.153 259.553 354.23 258.865C354.153 258.158 341.605 257.624 326.114 257.624ZM326.745 259.763C315.132 259.763 305.735 259.343 305.735 258.827C305.735 258.311 315.151 257.891 326.745 257.891C338.338 257.891 347.755 258.311 347.755 258.827C347.793 259.343 338.358 259.763 326.745 259.763Z" fill="#E8D4C1"/>
<path d="M326.114 257.624C310.586 257.624 297.999 258.177 297.999 258.865C297.999 259.553 310.586 260.107 326.114 260.107C341.643 260.107 354.23 259.553 354.23 258.865C354.23 258.177 341.643 257.624 326.114 257.624ZM326.745 259.763C315.132 259.763 305.735 259.343 305.735 258.827C305.735 258.311 315.151 257.891 326.745 257.891C338.338 257.891 347.755 258.311 347.755 258.827C347.793 259.343 338.358 259.763 326.745 259.763Z" fill="#E8D4C1"/>
<path d="M326.745 259.763C338.348 259.763 347.755 259.344 347.755 258.827C347.755 258.31 338.348 257.891 326.745 257.891C315.141 257.891 305.735 258.31 305.735 258.827C305.735 259.344 315.141 259.763 326.745 259.763Z" fill="#BA9C7E"/>
<path d="M342.197 151.79C336.18 166.058 331.902 181.051 329.457 196.37C327.012 211.688 326.363 227.235 327.547 242.706C328.215 251.359 329.495 259.992 331.31 268.472C331.653 270 334.003 269.37 333.659 267.842C330.412 252.829 329.037 237.492 329.438 222.155C329.858 206.894 332.093 191.652 336.085 176.907C338.319 168.579 341.165 160.404 344.527 152.459C344.794 151.866 344.259 151.122 343.667 150.969C342.98 150.74 342.426 151.198 342.197 151.79Z" fill="#4C7378"/>
<path d="M342.98 216.367C336.963 229.394 333.392 243.432 332.417 257.738C332.15 261.73 332.074 265.76 332.226 269.752C332.303 271.318 334.729 271.318 334.652 269.752C334.136 255.79 336.18 241.828 340.669 228.61C341.929 224.886 343.4 221.18 345.081 217.59C345.749 216.195 343.648 214.954 342.98 216.367Z" fill="#4C7378"/>
<path d="M312.362 154.999C316.202 168.254 318.933 181.796 320.957 195.434C322.982 209.071 324.281 222.804 325.331 236.499C325.923 244.272 326.458 252.065 326.936 259.877C327.05 261.443 329.476 261.443 329.361 259.877C328.464 246.03 327.528 232.144 326.191 218.335C324.816 204.563 323.02 190.773 320.289 177.193C318.761 169.496 316.927 161.894 314.731 154.349C314.272 152.841 311.961 153.471 312.362 154.999Z" fill="#4C7378"/>
<path d="M298.152 194.803C301.475 198.203 303.519 202.539 305.314 206.856C307.301 211.631 309.039 216.52 310.548 221.486C313.527 231.304 315.667 241.388 316.774 251.569C317.405 257.28 317.749 263.029 317.787 268.816C317.787 270.382 320.212 270.382 320.212 268.816C320.136 258.292 319.047 247.768 317.042 237.454C315.017 227.159 311.999 216.998 308.046 207.257C305.983 202.176 303.748 197.057 299.833 193.104C298.744 191.958 297.025 193.677 298.152 194.803Z" fill="#4C7378"/>
<path d="M314.903 243.031C313.107 240.834 310.873 239.326 309.001 238.581C307.129 237.836 305.639 237.836 305.2 238.313C304.761 238.791 304.856 240.261 305.505 242.038C306.155 243.814 307.224 245.953 308.829 247.94C310.433 249.926 312.343 251.378 314.024 252.352C315.667 253.326 317.08 253.727 317.5 253.479C318.016 253.135 318.322 251.683 317.978 249.716C317.672 247.73 316.698 245.227 314.903 243.031Z" fill="#4C7378"/>
<path d="M322.6 226.567C324.09 219.251 322.715 212.872 321.339 212.605C320.002 212.375 316.412 217.8 314.96 225.001C313.508 232.201 314.998 238.657 315.972 238.886C317.195 239.192 321.11 233.882 322.6 226.567Z" fill="#689399"/>
<path d="M316.03 238.829C317.546 237.286 313.906 231.253 307.901 225.354C301.896 219.455 295.799 215.923 294.283 217.466C292.768 219.008 296.408 225.041 302.413 230.941C308.418 236.84 314.515 240.371 316.03 238.829Z" fill="#4C7378"/>
<path d="M327.146 247.558C327.853 244.54 328.235 241.579 328.387 238.867C328.54 236.174 328.464 233.71 328.196 231.705C327.719 227.598 326.745 225.134 326.076 225.134C325.408 225.134 324.395 227.522 323.269 231.304C322.715 233.175 322.065 235.41 321.473 237.836C320.843 240.3 320.174 242.955 319.525 245.781C318.856 248.589 318.283 251.301 317.806 253.765C317.328 256.229 316.908 258.54 316.564 260.489C315.934 264.366 315.781 266.983 316.221 267.212C316.774 267.479 318.761 265.684 320.996 262.246C322.122 260.527 323.268 258.368 324.357 255.904C325.465 253.402 326.439 250.576 327.146 247.558Z" fill="#57848A"/>
<path d="M343.056 250.614C345.367 246.507 347.086 242.553 348.06 239.497C349.073 236.441 349.321 234.302 348.729 233.901C348.175 233.519 346.265 234.608 343.877 236.804C341.49 239.039 338.606 242.477 336.218 246.698C333.831 250.958 332.417 255.217 331.768 258.426C331.424 260.03 331.291 261.367 331.291 262.341C331.291 262.647 331.176 263.048 331.405 263.544C331.443 263.659 331.52 263.774 331.596 263.85C331.673 263.965 331.864 264.079 331.978 264.117C332.246 264.194 332.417 264.117 332.532 264.041C332.761 263.888 332.914 263.621 332.838 263.449C332.761 263.258 332.647 263.334 332.608 263.334C332.57 263.373 332.532 263.373 332.494 263.411C332.456 263.449 332.532 263.411 332.494 263.411C332.494 263.411 332.456 263.411 332.417 263.373C332.379 263.334 332.341 263.258 332.341 263.258C332.341 263.258 332.341 263.334 332.341 263.411C332.341 263.411 332.341 263.411 332.341 263.449L332.494 263.334C332.494 263.334 332.494 263.334 332.532 263.334C332.608 263.334 332.761 263.296 333.048 263.373H333.124H333.162H333.201C333.239 263.373 333.277 263.373 333.315 263.334C334.098 262.742 335.034 261.806 336.085 260.565C338.205 258.196 340.745 254.682 343.056 250.614Z" fill="#57848A"/>
<path d="M336.868 232.087C336.276 226.891 334.958 222.346 333.659 219.099C332.36 215.89 331.08 213.942 330.374 214.056C329.705 214.171 329.075 216.367 328.731 219.805C328.426 223.243 328.426 227.942 329.037 232.946C329.342 235.486 329.743 237.836 330.24 239.994C330.718 242.152 331.252 244.024 331.615 245.59C332.035 247.157 332.322 248.436 332.589 249.391C332.819 250.327 333.029 250.958 333.296 250.996C333.602 251.072 334.156 250.69 334.748 249.792C335.34 248.895 335.989 247.443 336.428 245.648C336.868 243.814 337.097 241.694 337.173 239.421C337.231 237.205 337.154 234.703 336.868 232.087Z" fill="#4C7378"/>
<path d="M304.57 207.046C301.552 204.143 298.267 202.119 295.65 200.954C293.033 199.788 291.123 199.54 290.684 200.094C290.264 200.61 290.951 202.405 292.441 204.716C293.931 207.027 296.242 209.912 299.126 212.662C302.029 215.431 305.066 217.513 307.492 218.889C309.918 220.264 311.751 220.875 312.114 220.531C312.592 220.111 312.229 218.22 310.987 215.642C309.784 213.12 307.626 209.95 304.57 207.046Z" fill="#689399"/>
<path d="M300.043 187.221C296.452 180.841 291.2 177.136 289.996 177.881C288.831 178.587 289.729 184.871 293.205 191.06C296.681 197.248 301.857 201.106 302.793 200.648C303.939 200.056 303.634 193.6 300.043 187.221Z" fill="#4C7378"/>
<path d="M313.375 199.426C312.744 195.09 311.216 191.327 309.65 188.863C308.084 186.361 306.556 185.1 305.926 185.349C305.295 185.578 304.952 187.469 304.913 190.238C304.875 193.008 305.066 196.618 305.62 200.533C306.174 204.449 307.072 207.963 307.893 210.618C308.752 213.273 309.612 215.03 310.089 215.03C310.72 215.068 311.808 213.426 312.668 210.618C313.527 207.791 314.005 203.761 313.375 199.426Z" fill="#57848A"/>
<path d="M353.37 223.396C356.961 220.932 359.979 218.316 362.023 216.119C364.085 213.961 365.193 212.242 364.83 211.592C364.486 211 362.443 211.038 359.482 211.86C356.541 212.681 352.683 214.324 348.92 216.902C345.157 219.481 342.311 222.575 340.478 225.039C338.682 227.541 337.937 229.451 338.243 229.852C338.663 230.33 340.669 229.928 343.438 228.802C346.227 227.732 349.779 225.86 353.37 223.396Z" fill="#689399"/>
<path d="M355.529 204.315C358.031 199.044 359.444 193.944 360.017 190.086C360.571 186.247 360.361 183.744 359.711 183.515C359.062 183.286 357.439 185.196 355.376 188.328C353.313 191.499 350.849 195.911 348.461 200.915C346.074 205.92 344.279 210.656 343.152 214.285C342.025 217.876 341.585 220.34 342.025 220.627C342.54 220.97 344.641 219.538 347.296 216.711C349.894 213.865 353.026 209.587 355.529 204.315Z" fill="#4C7378"/>
<path d="M348.625 205.486C350.308 196.239 349.948 188.429 347.82 188.042C345.693 187.655 342.604 194.837 340.92 204.083C339.237 213.33 339.597 221.14 341.725 221.527C343.852 221.914 346.941 214.732 348.625 205.486Z" fill="#689399"/>
<path d="M351.04 143.195C353.16 138.668 354.669 134.39 355.528 131.105C356.388 127.819 356.541 125.585 355.949 125.203C355.357 124.859 353.485 126.177 351.174 128.755C348.863 131.334 346.169 135.173 343.973 139.852C341.776 144.513 340.611 149.078 340.134 152.516C339.656 155.954 339.828 158.227 340.325 158.418C340.917 158.647 342.56 157.081 344.584 154.349C346.532 151.599 348.92 147.722 351.04 143.195Z" fill="#689399"/>
<path d="M345.043 143.195C345.348 138.496 345.195 134.199 344.775 130.99C344.355 127.819 343.687 125.718 343.018 125.623C342.35 125.508 341.07 127.304 339.886 130.36C338.682 133.416 337.574 137.751 337.231 142.641C336.887 147.531 337.536 152.019 338.358 155.19C339.179 158.36 340.229 160.309 340.745 160.309C341.375 160.309 342.311 158.322 343.133 155.228C343.954 152.115 344.737 147.913 345.043 143.195Z" fill="#4C7378"/>
<path d="M350.677 165.638C352.129 163.326 353.294 160.977 354.192 158.8C355.051 156.603 355.681 154.54 356.063 152.745C356.808 149.192 356.617 146.843 355.987 146.576C355.357 146.308 353.714 147.951 351.537 150.682C350.486 152.019 349.264 153.662 347.984 155.495C346.723 157.329 345.367 159.296 344.03 161.474C342.693 163.594 341.452 165.695 340.363 167.643C339.274 169.591 338.338 171.368 337.594 172.953C336.104 176.085 335.321 178.301 335.722 178.626C336.161 179.046 338.377 178.186 341.28 176.009C342.732 174.92 344.336 173.507 345.94 171.75C347.621 170.012 349.226 167.949 350.677 165.638Z" fill="#689399"/>
<path d="M333.086 162.62C332.647 160.27 332.188 158.074 331.749 156.088C331.558 155.075 331.31 154.139 331.119 153.242C331.004 152.802 330.889 152.382 330.813 151.943C330.737 151.523 330.622 151.122 330.546 150.74C329.839 147.683 329.285 145.544 328.521 145.43C327.891 145.315 326.496 147.149 325.58 150.625C325.465 151.045 325.35 151.523 325.236 151.962C325.121 152.439 325.083 152.936 325.007 153.414C324.854 154.464 324.777 155.534 324.739 156.661C324.701 158.933 324.892 161.436 325.331 163.976C326.305 169.056 328.101 173.239 329.591 176.181C331.119 179.122 332.437 180.918 332.914 180.841C333.544 180.727 334.156 178.568 334.251 175.168C334.442 171.845 333.984 167.318 333.086 162.62Z" fill="#4C7378"/>
<path d="M344.336 188.042C347.105 184.241 348.92 180.306 349.856 177.289C350.792 174.271 350.906 172.132 350.276 171.807C349.684 171.463 347.927 172.59 345.654 174.691C343.381 176.773 340.611 179.848 337.956 183.458C335.302 187.068 333.334 190.735 332.093 193.581C330.832 196.427 330.336 198.432 330.718 198.776C331.195 199.196 333.181 198.432 335.76 196.656C338.396 194.803 341.566 191.843 344.336 188.042Z" fill="#57848A"/>
<path d="M313.967 147.683C311.77 143.061 308.924 139.432 306.575 137.045C304.226 134.657 302.354 133.492 301.762 133.836C301.17 134.18 301.38 136.376 302.316 139.547C303.252 142.717 304.856 146.786 306.862 151.007C307.874 153.127 308.886 155.075 309.803 156.871C310.242 157.768 310.739 158.628 311.178 159.411C311.617 160.194 312.038 160.977 312.42 161.646C313.986 164.415 315.151 166.23 315.667 166.172C316.259 166.096 317.042 163.976 317.042 160.5C317.042 159.64 317.004 158.666 316.851 157.692C316.736 156.68 316.545 155.629 316.297 154.521C315.877 152.344 315.056 149.995 313.967 147.683Z" fill="#4C7378"/>
<path d="M313.795 164.663C308.313 157.749 301.705 154.063 300.654 154.999C299.642 155.897 302.335 162.83 307.664 169.553C313.012 176.276 319.429 180.23 320.251 179.638C321.301 178.931 319.277 171.578 313.795 164.663Z" fill="#4C7378"/>
<path d="M316.774 180.154C314.654 177.919 312.324 176.238 310.395 175.149C308.447 174.061 306.919 173.66 306.365 174.061C305.849 174.481 305.849 176.124 306.594 178.282C307.339 180.44 308.829 183.171 311.14 185.559C313.451 187.946 316.144 189.474 318.302 190.296C320.461 191.079 322.103 191.155 322.447 190.773C322.867 190.296 322.485 188.71 321.511 186.743C320.499 184.757 318.933 182.369 316.774 180.154Z" fill="#689399"/>
<path d="M321.034 200.953C318.493 196.331 315.839 192.263 313.718 189.379C311.598 186.495 309.918 184.833 309.345 185.005C308.829 185.196 308.905 187.431 309.765 190.83C310.624 194.23 312.305 198.814 314.922 203.57C317.538 208.307 320.633 212.261 323.173 214.954C325.713 217.647 327.7 219.099 328.063 218.908C328.54 218.64 328.063 216.482 326.821 213.197C325.541 209.911 323.612 205.595 321.034 200.953Z" fill="#689399"/>
<path d="M332.819 207.333C332.857 203.857 332.035 200.763 331.023 198.642C330.011 196.522 328.827 195.319 328.12 195.434C327.451 195.548 326.706 197 326.095 199.139C325.503 201.297 325.007 204.105 324.968 207.199C324.93 210.294 325.389 213.139 325.942 215.298C326.496 217.456 327.203 218.965 327.738 219.022C328.368 219.137 329.572 218.01 330.679 215.928C331.825 213.865 332.799 210.809 332.819 207.333Z" fill="#4C7378"/>
<path d="M335.894 219.729C337.498 216.215 338.014 212.681 337.956 210.064C337.842 207.448 337.173 205.805 336.505 205.652C335.836 205.499 334.595 206.741 333.181 208.708C331.768 210.695 330.202 213.369 328.769 216.482C327.356 219.576 326.42 222.575 325.885 224.962C325.331 227.35 325.217 229.107 325.618 229.413C326.095 229.795 327.814 229.222 329.877 227.579C331.902 225.975 334.251 223.282 335.894 219.729Z" fill="#689399"/>
<path d="M325.694 159.144C325.847 153.509 325.179 148.428 324.243 144.799C323.345 141.132 322.218 138.974 321.511 139.012C320.843 139.05 319.983 141.323 319.277 144.952C318.57 148.581 317.978 153.509 317.825 158.953C317.672 164.396 318.092 169.362 318.608 173.029C319.162 176.696 319.869 179.008 320.404 179.084C321.034 179.16 322.275 177.021 323.383 173.449C324.548 169.82 325.541 164.778 325.694 159.144Z" fill="#689399"/>
<path d="M354.211 258.865C354.134 259.533 341.585 260.106 326.095 260.106C310.643 260.106 298.056 259.553 297.98 258.865C297.98 258.941 297.98 259.056 297.98 259.132L302.717 309.27L303.5 317.674C303.538 319.164 313.623 320.367 326.057 320.367C338.529 320.367 348.614 319.164 348.614 317.674L348.767 315.917C348.767 315.879 348.767 315.84 348.767 315.802L349.149 311.925L354.153 259.132C354.211 259.056 354.211 258.941 354.211 258.865Z" fill="#DEC7B2"/>
<path d="M350.715 296.11L350.944 293.875C350.868 293.913 350.792 293.952 350.677 293.952C342.235 297.084 333.831 300.216 325.408 303.368C320.556 305.163 315.705 306.997 310.892 308.773C310.185 309.041 309.879 309.9 310.452 310.454C314.941 314.981 321.645 315.115 327.471 316.681C329.304 317.158 331.138 317.846 332.704 318.839H335.913C332.188 315.21 326.496 314.351 321.435 313.281C318.532 312.651 315.533 311.868 313.145 310.072C321.549 306.94 329.915 303.845 338.3 300.694C342.426 299.223 346.571 297.695 350.715 296.11Z" fill="#EBDBCD"/>
<path d="M328.75 276.151C336.887 273.878 345.062 271.624 353.198 269.389L353.58 265.359C336.218 265.741 318.856 266.524 301.494 267.708C300.597 267.785 299.699 267.823 298.801 267.899L298.992 269.924C314.005 268.873 329.037 268.09 344.049 267.651C346.933 267.575 349.837 267.498 352.702 267.422C345.119 269.504 337.536 271.567 329.973 273.687C320.461 276.342 310.968 279.168 302.01 283.351C301.456 283.619 300.883 283.867 300.329 284.134L300.559 286.293C300.998 286.063 301.494 285.853 301.934 285.624C310.548 281.518 319.659 278.691 328.75 276.151Z" fill="#EBDBCD"/>
<path d="M307.931 293.512C317.481 293.36 326.897 291.354 336.199 289.291C341.318 288.164 346.475 286.98 351.651 286.082L351.842 284.02C339.179 286.254 326.726 290.036 313.909 291.182C309.65 291.564 305.314 291.621 301.074 291.259L301.265 293.321C303.481 293.474 305.677 293.551 307.931 293.512Z" fill="#EBDBCD"/>
<path d="M347.793 258.827C347.793 259.342 338.377 259.763 326.783 259.763C315.189 259.763 305.773 259.342 305.773 258.827H298.076C298.076 258.827 298.076 258.827 298.076 258.865C298.152 259.533 310.701 260.106 326.191 260.106C341.643 260.106 354.23 259.552 354.306 258.865C354.306 258.865 354.306 258.865 354.306 258.827H347.793Z" fill="#E8D4C1"/>
<path d="M212.87 120.122C209.852 131.277 206.892 142.679 201.716 153.051C200.341 155.82 197.838 162.83 193.904 162.563C190.065 162.295 186.818 159.793 185.137 156.47C183.494 153.184 178.834 152.248 175.797 154.006C172.435 155.992 171.69 160.06 173.333 163.346C176.389 169.515 182.367 173.717 188.938 175.436C197.705 177.709 204.657 174.137 209.547 166.841C218.104 154.082 222.057 138.363 226.049 123.713C228.36 115.233 215.181 111.623 212.87 120.122Z" fill="#F0A173"/>
<path d="M215.525 272.082C216.423 277.392 217.55 282.645 218.849 287.878C221.198 297.103 236.249 293.188 233.899 283.962C232.562 278.729 231.474 273.477 230.576 268.167C229.907 264.251 224.712 262.036 220.988 263.01C216.537 264.156 214.857 268.129 215.525 272.082Z" fill="#E3996D"/>
<path d="M268.795 163.689C268.795 163.689 273.284 174.806 273.284 175.818C273.284 176.83 252.56 179.733 244.08 179.256C237.547 178.874 222.688 176.525 223.547 175.111C224.407 173.698 228.857 162.601 228.857 162.601C228.857 162.601 239.687 165.332 248.415 165.065C257.144 164.797 268.795 163.689 268.795 163.689Z" fill="#E3996D"/>
<path d="M223.509 175.13C223.509 175.13 229.525 177.117 232.983 177.594C247.804 179.714 257.392 178.492 257.392 178.492C257.392 178.492 213.405 202.577 211.953 205.71C210.502 208.842 224.387 219.71 228.456 231.915C232.085 242.783 234.511 269.809 234.988 275.635C235.064 276.342 234.644 276.972 234.014 277.277C232.562 277.946 229.602 279.111 225.171 279.932C218.6 281.136 214.341 282.32 214.226 280.83C214.112 279.34 189.702 234.054 188.804 232.564C187.906 231.074 173.906 209.224 173.314 203.666C171.576 186.915 223.509 175.13 223.509 175.13Z" fill="#FF8A91"/>
<path d="M238.827 94.6236C238.827 94.6236 226.947 97.0111 221.694 101.423C216.996 105.377 208.401 122.109 206.605 125.699C206.376 126.12 206.491 126.597 206.796 126.941C207.961 128.106 210.788 130.742 213.405 132.098C216.767 133.855 223.49 135.192 223.49 135.192L225.018 125.031C225.018 125.031 221.312 131.754 223.776 138.993C225.228 143.214 226.278 148.849 226.508 151.618C226.622 153.184 226.278 162.066 226.278 162.066C226.278 162.066 235.313 164.415 245.054 165.084C254.757 165.752 271.297 162.62 271.297 162.62C271.297 162.62 270.476 142.011 270.992 138.286C272.004 130.818 269.865 125.375 269.865 125.375L272.711 136.72C272.711 136.72 282.49 137.962 284.362 136.988C286.157 136.052 289.251 133.397 290.588 132.251C291.008 131.907 291.142 131.353 291.028 130.837C290.092 127.036 285.832 111.355 278.784 103.543C275.155 99.5514 261.881 95.4067 258.768 95.4067C255.616 95.3494 238.827 94.6236 238.827 94.6236Z" fill="white"/>
<path d="M268.642 28.4418C274.866 28.4418 279.911 23.6958 279.911 17.8413C279.911 11.9868 274.866 7.24078 268.642 7.24078C262.419 7.24078 257.373 11.9868 257.373 17.8413C257.373 23.6958 262.419 28.4418 268.642 28.4418Z" fill="#110580"/>
<path d="M218.81 288.833C218.81 288.833 224.445 289.883 226.947 289.062C230.786 287.802 234.568 284.841 234.568 284.841C234.568 284.841 239.343 289.96 240.661 291.182C241.979 292.405 243.64 293.245 244.958 295.556C246.276 297.867 246.372 304.323 237.452 310.378C234.243 312.574 230.213 326.689 222.287 329.497C216.977 331.369 212.775 331.961 209.184 330.318C205.517 328.638 204.6 324.646 211.953 319.202C219.307 313.759 217.626 307.398 218.409 303.406C219.192 299.395 218.81 288.833 218.81 288.833Z" fill="#AB534D"/>
<path d="M158.932 284.249C158.187 290.151 157.404 296.053 156.659 301.936C156.143 305.889 160.612 309.289 164.471 309.289C169.093 309.289 171.748 305.889 172.283 301.936C173.027 296.034 173.811 290.132 174.555 284.249C175.071 280.295 170.602 276.896 166.744 276.896C162.102 276.896 159.447 280.295 158.932 284.249Z" fill="#FCB58A"/>
<path d="M193.617 150.587C198.106 151.484 201.525 154.388 204.772 157.501C207.083 159.698 210.292 156.049 207.981 153.796C204.103 150.09 199.844 146.786 194.534 145.735C191.44 145.105 190.485 149.956 193.617 150.587Z" fill="#FCB58A"/>
<path d="M257.01 79.4391L238.827 79.3245C238.827 79.3245 240.164 96.6482 240.164 96.7628C240.164 99.8188 244.232 102.283 249.275 102.283C254.317 102.283 258.386 99.8188 258.386 96.7628C258.347 96.6864 257.01 79.4391 257.01 79.4391Z" fill="#FCB58A"/>
<path d="M248.53 82.495C245.168 82.495 241.921 81.9411 238.942 80.967L239.171 84.4433C241.234 85.4174 244.481 86.1241 247.766 86.3533C250.65 86.5443 254.718 86.6589 257.469 85.8376L257.163 81.3108C254.394 82.0939 251.51 82.495 248.53 82.495Z" fill="#E3996D"/>
<path d="M273.551 175.761C273.551 175.761 281.497 184.489 282.929 190.621C284.343 196.752 285.279 206.034 283.235 211.459C281.172 216.864 274.716 224.714 262.97 225.421C243.564 226.586 203.091 219.519 201.296 219.519C199.5 219.519 200.207 231.361 194.133 247.902C188.69 262.609 178.968 287.057 176.924 292.176C176.695 292.768 176.141 293.15 175.51 293.188C173.39 293.303 168.348 293.417 163.229 292.596C159.638 292.042 157.002 290.533 155.57 289.616C154.901 289.177 154.558 288.375 154.634 287.592C155.264 281.919 157.996 258.33 159.677 248.647C161.472 238.447 162.771 199.177 169.265 191.232C174.937 184.279 177 183.534 183.38 181.529C189.129 179.734 250.535 179.18 250.535 179.18L273.551 175.761Z" fill="#FFADB2"/>
<path d="M155.188 304.782C153.316 308.258 149.63 313.071 146.593 315.077C139.469 319.852 130.396 326.307 129.04 327.663C127.703 329 124.628 334.788 129.307 337.901C132.669 340.098 142.372 340.957 154.615 334.922C163.84 330.376 168.424 329.402 171.786 328.122C177.382 326.059 176.122 319.947 174.957 316.967C174.059 314.618 173.791 314.16 173.161 308.086C173.008 306.787 172.493 301.477 172.493 301.477C172.493 301.477 167.756 303.082 162.561 302.451C158.76 301.974 156.62 299.434 156.62 299.434C156.62 299.434 155.876 303.54 155.188 304.782Z" fill="#C7645D"/>
<path d="M280.007 232.507H211.132C209.967 232.507 209.05 231.571 209.05 230.425V223.587C209.05 222.422 209.986 221.505 211.132 221.505H280.007C281.172 221.505 282.089 222.441 282.089 223.587V230.425C282.089 231.571 281.153 232.507 280.007 232.507Z" fill="#AB8868"/>
<path d="M140.863 124.229L177.669 127.896C178.528 127.972 179.35 128.45 179.942 129.195L219.135 177.843C219.574 178.396 219.211 179.332 218.619 179.256L180.094 174.997C179.388 174.92 178.757 174.557 178.261 173.908L140.481 125.279C140.156 124.878 140.405 124.152 140.863 124.229Z" fill="#D7D7E6"/>
<path d="M275.251 133.912C275.404 134.619 275.557 135.326 275.69 136.033C275.728 136.338 276.034 137.943 275.919 137.293C275.843 136.739 276.072 138.496 276.11 138.898C276.187 139.642 276.225 140.387 276.263 141.132C276.301 142.507 276.263 143.902 276.187 145.315C276.149 145.735 276.11 146.175 276.072 146.576C276.072 146.461 276.225 145.525 276.11 146.347C275.958 147.168 275.805 148.027 275.595 148.849C275.442 149.479 275.213 150.09 275.041 150.682C274.621 152.057 275.155 150.72 274.659 151.695C274.353 152.248 274.067 152.86 273.761 153.375C273.57 153.681 272.31 155.495 272.978 154.636C270.896 157.253 269.311 158.399 266.102 159.869C253.477 165.657 236.841 161.073 223.757 157.959C217.97 156.584 212.183 155.075 206.51 153.299C198.106 150.644 194.534 163.823 202.881 166.478C216.996 170.967 231.856 174.424 246.601 175.78C263.504 177.308 282.261 171.788 288.22 154.273C290.837 146.576 290.244 138.076 288.525 130.264C286.577 121.669 273.398 125.317 275.251 133.912Z" fill="#FCB58A"/>
<path d="M271.087 129.73C272.329 128.908 285.985 119.167 285.985 119.167L290.837 131.926C290.837 131.926 289.461 134.352 283.999 137.121C278.479 139.891 273.284 139.241 273.284 139.241L271.087 129.73Z" fill="white"/>
<path d="M262.721 179.046C263.103 182.484 263.428 185.96 263.81 189.379C264.154 192.473 264.593 195.606 264.708 198.757C264.784 201.374 264.44 204.162 262.511 206.111C260.792 207.83 258.328 208.422 255.979 208.613C253.171 208.842 250.383 208.613 247.575 208.498C244.175 208.345 240.775 208.193 237.376 208.059C230.5 207.753 223.643 207.467 216.805 207.199C213.481 207.047 210.158 206.894 206.835 206.779C204.141 206.665 201.429 206.626 198.736 206.894C193.503 207.409 188.403 209.128 185.08 213.426C181.642 217.876 180.629 223.587 179.483 228.916C178.032 235.678 176.58 242.401 175.109 249.143C173.639 255.885 172.206 262.628 170.735 269.37C169.494 275.005 168.386 280.716 166.935 286.274C166.705 287.133 166.495 288.031 166.228 288.89C165.846 290.151 167.794 290.686 168.176 289.406C169.589 284.593 170.602 279.703 171.652 274.814C173.104 268.052 174.555 261.329 176.026 254.587C177.478 247.787 178.968 241.006 180.438 234.207C181.107 231.074 181.737 227.942 182.501 224.829C183.131 222.136 183.876 219.481 185.194 217.017C186.436 214.667 188.136 212.681 190.466 211.344C192.701 210.007 195.241 209.319 197.819 208.995C203.645 208.212 209.738 208.88 215.582 209.148C222.458 209.453 229.315 209.74 236.153 210.007C239.629 210.16 243.067 210.313 246.524 210.446C249.409 210.561 252.35 210.828 255.215 210.676C257.641 210.561 260.181 210.16 262.301 208.842C264.498 207.543 265.968 205.328 266.484 202.825C267.076 200.018 266.751 197.153 266.446 194.345C266.064 190.907 265.739 187.431 265.357 184.012C265.166 182.331 265.013 180.688 264.841 179.008C264.574 177.766 262.569 177.728 262.721 179.046Z" fill="white"/>
<path d="M54.6644 337.519C52.7926 336.851 51.8185 334.826 52.4297 332.973L97.4485 185.387C98.0788 183.477 100.18 182.446 102.071 183.114L106.769 184.795C108.679 185.463 109.653 187.603 108.928 189.455L59.2675 335.399C58.5799 337.233 56.5171 338.188 54.6644 337.519Z" fill="#8A6645"/>
<path d="M288.067 337.519C289.939 336.851 290.913 334.826 290.302 332.973L245.321 185.387C244.691 183.477 242.59 182.446 240.699 183.114L236 184.795C234.09 185.463 233.116 187.603 233.842 189.455L283.54 335.361C284.152 337.233 286.195 338.188 288.067 337.519Z" fill="#8A6645"/>
<path d="M295.459 190.468H47.3108C45.2862 190.468 43.6436 188.825 43.6436 186.801V178.779C43.6436 176.754 45.2862 175.111 47.3108 175.111H295.459C297.483 175.111 299.126 176.754 299.126 178.779V186.801C299.088 188.825 297.464 190.468 295.459 190.468Z" fill="#C49C77"/>
<path d="M76.8395 318.304C54.0341 315.458 43.7964 330.146 43.7582 330.185C43.7582 330.146 44.8469 330.968 44.8469 327.874L44.3312 323.251C44.3312 323.251 42.383 323.843 41.6381 324.149C39.327 325.123 37.226 327.854 36.5957 327.816C36.0036 327.778 33.8262 325.83 30.4264 324.913C27.0266 323.977 23.0347 324.875 22.6527 324.607C22.3089 324.378 22.4235 323.194 21.9078 321.666C21.2775 319.871 19.6349 317.827 19.6349 317.827C19.5585 317.903 14.4396 327.683 13.37 329.669C12.3004 331.655 10.4668 334.711 10.1994 341.282C9.81743 350.049 15.7193 346.515 15.7193 346.515L11.6128 342.714H5.71092H3.99191C1.79541 342.714 0 344.873 0 347.489C0 350.106 1.79541 352.264 3.99191 352.264H5.71092H11.6128H103.408L103.484 344.051C103.484 343.937 104.019 321.685 76.8395 318.304Z" fill="#110580"/>
<path d="M98.6327 355.97H15.7193C13.0644 355.97 10.9443 353.811 10.9443 351.195C10.9443 348.54 13.1026 346.42 15.7193 346.42H98.6327C101.288 346.42 103.408 348.578 103.408 351.195C103.408 353.792 101.249 355.97 98.6327 355.97Z" fill="#110580"/>
<path d="M85.0908 330.127C80.0102 329.191 74.643 329.535 70.1163 332.209C66.9075 334.119 64.329 337.061 62.9538 340.537C62.4763 341.778 62.1325 343.077 62.0943 344.376C59.0383 344.185 55.7531 344.185 52.9072 345.388C51.4174 346.019 50.1377 347.031 49.5456 348.597C48.9917 350.01 48.9917 351.729 49.622 353.143C50.3287 354.786 51.8185 355.836 53.6139 355.836C54.3206 355.836 54.3206 354.709 53.6139 354.709C50.7107 354.671 49.6984 351.309 50.6343 348.998C51.7612 346.152 55.5239 345.637 58.1788 345.484C59.7068 345.407 61.1966 345.446 62.7246 345.56C63.0302 345.598 63.2785 345.293 63.2785 345.006C63.1257 342.313 64.4818 339.486 66.1244 337.309C68.5119 334.138 72.0645 331.999 75.9036 331.178C78.8451 330.548 81.9202 330.662 84.8616 331.216C85.4919 331.331 85.7975 330.242 85.0908 330.127Z" fill="#787CCB"/>
<path d="M93.0746 354.766C96.7991 355.626 100.734 355.779 104.496 356.485C106.693 356.906 111.334 357.937 107.304 359.771C102.224 362.082 95.3284 360.515 89.9422 360.821C84.0021 361.203 77.508 362.731 73.5543 367.506C69.5242 372.358 71.0522 382.843 79.036 381.946C83.8111 381.392 85.9121 376.54 82.837 372.759C82.6842 372.568 82.5314 372.377 82.3977 372.205C82.8752 373.064 83.3718 373.886 83.8875 374.745C83.5437 373.809 82.9898 375.012 84.0403 374.516C85.2818 373.924 86.3132 373.141 87.6311 372.682C90.4006 371.746 93.3038 371.479 96.1497 371.192C102.052 370.639 109.558 370.715 114.257 366.532C118.917 362.387 119.624 354.957 114.18 351.08C108.947 347.375 98.881 347.795 93.0555 349.705C90.7635 350.507 90.4579 354.136 93.0746 354.766Z" fill="#110580"/>
<path d="M16.8081 334.73C17.0373 336.067 18.2215 337.118 19.5012 337.424C20.8382 337.729 22.3853 337.309 23.3021 336.258C23.6841 335.819 23.0347 335.17 22.6718 335.628C21.9651 336.449 20.8 336.793 19.7686 336.564C18.7563 336.335 17.8968 335.552 17.7058 334.501C17.553 333.909 16.6935 334.119 16.8081 334.73Z" fill="#787CCB"/>
<path d="M29.5287 337.748C29.5287 339.085 30.7893 340.098 32.0308 340.327C33.5206 340.594 34.9722 339.907 36.0991 338.99C36.5384 338.608 35.9081 337.978 35.4688 338.36C34.6093 339.104 33.4824 339.62 32.3364 339.486C31.4769 339.372 30.4264 338.742 30.4264 337.767C30.4264 337.156 29.5287 337.156 29.5287 337.748Z" fill="#787CCB"/>
<path d="M25.384 343.574C24.5245 342.867 23.5122 342.447 22.4426 342.313C22.2516 342.275 22.0224 342.428 21.9651 342.581C21.8505 342.772 21.8887 342.963 21.9651 343.134C22.0033 343.173 22.0415 343.249 22.0415 343.287C22.0033 343.135 22.0415 343.325 22.0797 343.364C22.1179 343.44 22.1179 343.516 22.1561 343.631C22.1561 343.669 22.1943 343.708 22.1943 343.784V343.822C22.1943 343.898 22.1943 343.975 22.2325 344.09C22.2707 344.51 22.2707 344.873 22.3089 345.293C22.3089 345.331 22.3089 345.331 22.3089 345.369V345.407V345.446C22.3853 345.675 22.6909 345.828 22.901 345.789C22.9392 345.789 22.9392 345.789 22.9392 345.789C23.0156 345.751 23.1302 345.713 23.2066 345.637C23.2448 345.598 23.283 345.56 23.283 345.56C23.3594 345.484 23.474 345.446 23.5504 345.407C23.5886 345.369 23.665 345.369 23.7032 345.331C23.7414 345.331 23.7414 345.293 23.7796 345.293C23.8942 345.255 24.0088 345.216 24.0852 345.178C24.5245 344.987 25.0211 344.796 25.3458 344.472C25.575 344.166 25.6132 343.765 25.384 343.574ZM23.7796 345.216C23.8178 345.216 23.8178 345.216 23.7796 345.216C23.8942 345.178 23.8178 345.216 23.7796 345.216Z" fill="#787CCB"/>
<path d="M179.693 39.4435C176.79 30.8485 169.284 23.9534 160.364 21.1457C151.444 18.3379 141.321 19.5795 133.185 24.0871C129.193 26.2836 125.564 29.3587 123.329 33.236C121.094 37.1133 120.388 41.9265 122.03 46.1094C124.017 51.1519 128.983 54.4753 134.006 56.8246C139.411 59.3649 146.803 61.0457 153.679 59.3267C159.352 62.8029 165.025 66.3173 170.697 69.7744C169.647 65.8971 166.514 58.1998 166.4 58.1616L167.145 58.0852C171.251 56.6336 174.976 54.0933 177.669 50.7699C178.968 49.1654 180.094 47.2936 180.438 45.2499C180.763 43.3017 180.324 41.3153 179.693 39.4435Z" fill="#FCFAF8"/>
<path d="M139.335 15.7021C137.1 9.01712 130.11 5.17801 123.348 3.0388C107.934 -1.79351 90.7635 -0.838508 75.98 5.73191C69.0658 8.78792 62.3617 13.4292 59.3248 20.3626C56.7081 26.4173 57.262 33.5798 60.2989 39.4435C63.3358 45.3072 68.5883 49.853 74.5666 52.5844C72.4847 57.9324 69.295 64.4646 67.2513 69.7935C71.4724 67.2914 75.7317 64.7893 79.9529 62.2872C82.1112 61.0266 84.3268 59.7087 86.7525 58.9638C90.0377 57.9515 93.5521 58.0279 96.9901 57.7987C106.617 57.2448 116.224 54.3607 124.093 48.8025C131.924 43.2062 137.941 34.764 139.698 25.2904C140.233 22.1198 140.328 18.7773 139.335 15.7021Z" fill="white"/>
<path d="M126.824 82.4568C126.519 80.0311 124.762 78.0447 122.871 76.5167C117.427 72.2574 110.074 70.8822 103.236 71.9709C100.696 72.3911 98.1552 73.136 96.0351 74.5876C91.6612 77.6054 89.7703 83.6601 91.4893 88.6643C91.7185 89.371 92.578 90.1159 92.578 90.1159C90.4579 94.1461 89.2164 97.1257 87.421 101.27C91.6039 98.0998 96.1497 95.3303 100.982 93.0192L101.574 93.3248C107.285 96.801 114.83 95.1202 120.579 91.7204C123.902 89.7339 127.302 86.4105 126.824 82.4568Z" fill="white"/>
<path d="M226.355 120.16C226.355 120.16 224.12 126.654 223.585 128.966C222.993 131.659 222.993 135.097 222.993 135.097L220.797 134.619C220.797 134.619 221.351 131.143 222.783 127.457C223.509 125.547 226.355 120.16 226.355 120.16Z" fill="#E0E0E0"/>
<path d="M269.846 124.305C269.846 124.305 270.705 130.608 270.858 131.964C271.202 134.772 271.087 139.05 271.087 139.05L273.284 139.203C273.284 139.203 272.806 133.893 271.794 130.398C271.335 128.717 269.846 124.305 269.846 124.305Z" fill="#E0E0E0"/>
<path d="M263.275 83.9849C260.143 83.9849 257.641 79.5728 257.641 73.9764C257.641 68.3801 260.105 63.968 263.275 63.968C266.408 63.968 268.91 68.3801 268.91 73.9764C268.91 79.6301 266.446 83.9849 263.275 83.9849ZM263.275 65.3623C260.964 65.3623 259.016 69.316 259.016 74.0147C259.016 78.7133 260.964 82.667 263.275 82.667C265.586 82.667 267.535 78.7133 267.535 74.0147C267.535 69.316 265.586 65.3623 263.275 65.3623Z" fill="white"/>
<path d="M287.685 86.0476C290.149 84.8825 289.958 83.6983 289.366 81.5591L277.237 47.4082C273.608 35.3179 261.824 26.4172 247.823 26.4172C238.713 26.4172 233.479 30.2563 233.479 30.2563C233.556 30.2563 239.381 31.6698 243.717 35.7381C248.091 39.8446 245.474 44.8106 250.707 49.7384C254.222 53.0236 260.334 54.6662 260.334 54.6662C260.334 55.1437 261.308 78.4076 261.709 88.2632C261.862 91.7394 263.829 91.3956 270.782 90.4215C280.007 89.1418 283.617 87.9385 287.685 86.0476Z" fill="#110580"/>
<path d="M244.156 46.3195C240.565 46.3195 237.471 48.3441 235.905 51.3237C234.606 50.6552 233.174 50.3114 231.684 50.3114C231.206 50.3114 230.71 50.3496 230.232 50.426C229.067 46.5869 225.533 43.7792 221.312 43.7792C216.155 43.7792 211.972 47.9621 211.972 53.1191C211.972 58.2761 216.155 62.459 221.312 62.459C226.469 62.459 230.652 58.2761 230.652 53.1191C230.652 52.6989 230.614 52.2596 230.538 51.8585C232.18 51.6293 233.899 51.8967 235.351 52.6798C235.007 53.6157 234.835 54.628 234.835 55.6594C234.835 60.8164 239.018 64.9993 244.175 64.9993C249.332 64.9993 253.515 60.8164 253.515 55.6594C253.515 50.5024 249.313 46.3195 244.156 46.3195ZM221.312 60.9883C216.938 60.9883 213.443 57.4357 213.443 53.1191C213.443 48.7452 216.996 45.2499 221.312 45.2499C225.686 45.2499 229.182 48.8025 229.182 53.1191C229.182 57.4548 225.648 60.9883 221.312 60.9883ZM244.156 63.5286C239.782 63.5286 236.287 59.976 236.287 55.6594C236.287 51.2855 239.839 47.7902 244.156 47.7902C248.53 47.7902 252.025 51.3428 252.025 55.6594C252.083 59.976 248.53 63.5286 244.156 63.5286Z" fill="#E0E0E0"/>
<path d="M198.087 166.268L190.657 165.523C185.996 165.046 182.367 161.569 182.673 157.749L182.788 156.451C183.093 152.688 187.162 149.956 191.822 150.434L199.252 151.179C203.912 151.656 207.541 155.133 207.236 158.953L207.121 160.251C206.835 164.071 202.766 166.765 198.087 166.268Z" fill="#FCB58A"/>
<path d="M100.944 85.3028C102.094 85.3028 103.026 84.4134 103.026 83.3164C103.026 82.2193 102.094 81.33 100.944 81.33C99.794 81.33 98.8619 82.2193 98.8619 83.3164C98.8619 84.4134 99.794 85.3028 100.944 85.3028Z" fill="#D6D7F0"/>
<path d="M108.202 85.3028C109.352 85.3028 110.284 84.4134 110.284 83.3164C110.284 82.2193 109.352 81.33 108.202 81.33C107.052 81.33 106.12 82.2193 106.12 83.3164C106.12 84.4134 107.052 85.3028 108.202 85.3028Z" fill="#D6D7F0"/>
<path d="M114.944 85.3028C116.094 85.3028 117.026 84.4134 117.026 83.3164C117.026 82.2193 116.094 81.33 114.944 81.33C113.794 81.33 112.862 82.2193 112.862 83.3164C112.862 84.4134 113.794 85.3028 114.944 85.3028Z" fill="#D6D7F0"/>
<path d="M150.948 48.0768C150.871 48.5161 150.795 49.0127 150.948 49.452C151.062 49.834 151.253 50.1969 151.54 50.4643C151.769 50.6935 151.979 50.8463 152.285 50.9418C152.552 51.0946 152.839 51.171 153.182 51.1328C153.603 51.1328 154.004 51.0182 154.348 50.8272C154.348 50.8272 154.386 50.8272 154.386 50.789C154.195 50.8654 154.004 50.9418 153.832 51.0182H153.87C153.641 51.0564 153.45 51.0946 153.24 51.0946C153.24 51.0946 153.24 51.0946 153.278 51.0946C153.507 51.0564 153.698 51.0182 153.908 51.0182C154.099 50.9418 154.29 50.8654 154.462 50.789C154.615 50.6744 154.806 50.5216 154.94 50.407C155.054 50.2542 155.207 50.0632 155.322 49.9295C155.398 49.7385 155.474 49.5475 155.551 49.3756C155.589 49.1464 155.627 48.9554 155.627 48.7453C155.589 48.5161 155.551 48.3251 155.551 48.115C155.474 47.8094 155.322 47.5229 155.112 47.2937C154.997 47.1027 154.844 46.9499 154.672 46.8544C154.519 46.7016 154.328 46.587 154.157 46.5488C153.966 46.4342 153.775 46.396 153.564 46.396C153.335 46.3196 153.144 46.3196 152.934 46.396C152.705 46.396 152.514 46.4342 152.342 46.5488C152.151 46.6252 151.96 46.7016 151.826 46.8544C151.635 46.969 151.483 47.1218 151.387 47.2937C151.158 47.5229 151.005 47.7712 150.948 48.0768Z" fill="#D6D7F0"/>
<path d="M145.485 34.382C146.421 32.9304 148.847 32.1473 150.528 32.3192C151.311 32.3956 152.915 32.7967 153.373 33.5607C153.717 34.0764 153.794 33.4843 153.221 34.0764C152.877 34.4202 152.247 34.6303 151.845 34.8977C149.191 36.6549 146.44 41.6591 150.432 43.6265C151.998 44.4096 154.061 43.4737 154.023 41.5636C154.023 40.7041 153.717 40.1502 154.176 39.4053C154.481 38.9278 155.226 38.5458 155.665 38.2402C156.907 37.3425 158.091 36.4066 158.359 34.8022C158.798 31.9181 156.238 29.7216 153.775 28.7857C151.081 27.7734 148.064 28.1172 145.714 29.7598C144.454 30.6575 141.952 33.5225 144.263 34.6876C144.702 34.9359 145.218 34.8213 145.485 34.382Z" fill="#D6D7F0"/>
<path d="M118.019 175.13H111.793C107.572 175.13 104.057 171.807 103.847 167.586L102.835 149.25C102.797 148.581 103.35 147.989 104.038 147.989H125.774C126.442 147.989 127.015 148.581 126.977 149.25L125.965 167.586C125.736 171.807 122.221 175.13 118.019 175.13Z" fill="#FF5856"/>
<path d="M126.748 152.115L126.595 154.922C129.174 155.438 131.084 157.73 131.084 160.442C131.084 163.384 128.811 165.79 125.927 166.039L125.774 168.846C130.301 168.655 133.872 164.969 133.872 160.442C133.834 156.24 130.778 152.764 126.748 152.115Z" fill="#FF5856"/>
<path d="M116.51 143.692C116.51 143.692 111.162 138.764 111.353 135.135C111.621 129.615 116.587 127.514 114.677 122.3C113.779 119.836 110.055 111.814 110.055 111.814C110.055 111.814 116.224 117.907 118.382 121.669C120.369 125.069 120.139 130.474 117.962 133.053C113.302 138.687 116.51 143.692 116.51 143.692Z" fill="#DCDCED"/>
<path d="M121.668 21.6423H76.0573C75.0068 21.6423 74.1473 20.7828 74.1473 19.7323C74.1473 18.6818 75.0068 17.8223 76.0573 17.8223H121.668C122.719 17.8223 123.578 18.6818 123.578 19.7323C123.578 20.7828 122.719 21.6423 121.668 21.6423Z" fill="#D6D7F0"/>
<path d="M106.731 40.0165H76.0564C75.0059 40.0165 74.1464 39.157 74.1464 38.1065C74.1464 37.056 75.0059 36.1965 76.0564 36.1965H106.75C107.801 36.1965 108.66 37.056 108.66 38.1065C108.641 39.157 107.782 40.0165 106.731 40.0165Z" fill="#D6D7F0"/>
<path d="M96.0924 30.6002H76.0373C74.9868 30.6002 74.1273 29.7407 74.1273 28.6902C74.1273 27.6397 74.9868 26.7802 76.0373 26.7802H96.0924C97.1429 26.7802 98.0024 27.6397 98.0024 28.6902C98.0024 29.7789 97.1429 30.6002 96.0924 30.6002Z" fill="#D6D7F0"/>
<path d="M117.905 30.6002H105.318C104.267 30.6002 103.408 29.7407 103.408 28.6902C103.408 27.6397 104.267 26.7802 105.318 26.7802H117.905C118.955 26.7802 119.815 27.6397 119.815 28.6902C119.796 29.7789 118.936 30.6002 117.905 30.6002Z" fill="#D6D7F0"/>
</svg>
