<svg width="204" height="32" viewBox="0 0 204 32" fill="none" xmlns="http://www.w3.org/2000/svg">
<path d="M10.5645 30C8.5672 30 6.76704 29.5646 5.16397 28.6938C3.56091 27.7975 2.29948 26.5682 1.37969 25.0059C0.459896 23.4436 0 21.6765 0 19.7045C0 17.7325 0.459896 15.9653 1.37969 14.4031C2.29948 12.8408 3.56091 11.6243 5.16397 10.7535C6.76704 9.88277 8.5672 9.44739 10.5645 9.44739C12.5617 9.44739 14.3619 9.88277 15.965 10.7535C17.568 11.6243 18.8163 12.8408 19.7098 14.4031C20.6296 15.9653 21.0895 17.7325 21.0895 19.7045C21.0895 21.6765 20.6296 23.4436 19.7098 25.0059C18.8163 26.5682 17.568 27.7975 15.965 28.6938C14.3619 29.5646 12.5617 30 10.5645 30ZM10.5645 27.5798C12.0361 27.5798 13.3501 27.2596 14.5064 26.6194C15.689 25.9535 16.6088 25.0187 17.2658 23.815C17.9228 22.6113 18.2513 21.2411 18.2513 19.7045C18.2513 18.1678 17.9228 16.7977 17.2658 15.594C16.6088 14.3903 15.689 13.4683 14.5064 12.828C13.3501 12.1621 12.0361 11.8292 10.5645 11.8292C9.0928 11.8292 7.76567 12.1621 6.58308 12.828C5.42677 13.4683 4.50698 14.3903 3.8237 15.594C3.16671 16.7977 2.83821 18.1678 2.83821 19.7045C2.83821 21.2411 3.16671 22.6113 3.8237 23.815C4.50698 25.0187 5.42677 25.9535 6.58308 26.6194C7.76567 27.2596 9.0928 27.5798 10.5645 27.5798Z" fill="black"/>
<path d="M70.7515 13.5579C71.4085 12.2005 72.3808 11.1761 73.6685 10.4846C74.9825 9.79313 76.5987 9.44739 78.5171 9.44739V12.0981L77.847 12.0597C75.6658 12.0597 73.9576 12.7128 72.7225 14.0189C71.4873 15.325 70.8697 17.1562 70.8697 19.5124V29.8079H68.0709V9.60105H70.7515V13.5579Z" fill="black"/>
<path d="M106.967 2.91666V29.8079H104.089V17.3995H86.8236V29.8079H83.9065V2.91666H86.8236V14.9025H104.089V2.91666H106.967Z" fill="black"/>
<path d="M123.857 30C121.86 30 120.06 29.5646 118.457 28.6938C116.854 27.7975 115.592 26.5682 114.673 25.0059C113.753 23.4436 113.293 21.6765 113.293 19.7045C113.293 17.7325 113.753 15.9653 114.673 14.4031C115.592 12.8408 116.854 11.6243 118.457 10.7535C120.06 9.88277 121.86 9.44739 123.857 9.44739C125.855 9.44739 127.655 9.88277 129.258 10.7535C130.861 11.6243 132.109 12.8408 133.003 14.4031C133.923 15.9653 134.382 17.7325 134.382 19.7045C134.382 21.6765 133.923 23.4436 133.003 25.0059C132.109 26.5682 130.861 27.7975 129.258 28.6938C127.655 29.5646 125.855 30 123.857 30ZM123.857 27.5798C125.329 27.5798 126.643 27.2596 127.799 26.6194C128.982 25.9535 129.902 25.0187 130.559 23.815C131.216 22.6113 131.544 21.2411 131.544 19.7045C131.544 18.1678 131.216 16.7977 130.559 15.594C129.902 14.3903 128.982 13.4683 127.799 12.828C126.643 12.1621 125.329 11.8292 123.857 11.8292C122.386 11.8292 121.059 12.1621 119.876 12.828C118.72 13.4683 117.8 14.3903 117.117 15.594C116.46 16.7977 116.131 18.1678 116.131 19.7045C116.131 21.2411 116.46 22.6113 117.117 23.815C117.8 25.0187 118.72 25.9535 119.876 26.6194C121.059 27.2596 122.386 27.5798 123.857 27.5798Z" fill="black"/>
<path d="M158.781 9.60105V29.8079H156.101V26.12C155.365 27.3493 154.353 28.3097 153.066 29.0012C151.778 29.667 150.306 30 148.651 30C145.944 30 143.802 29.2701 142.225 27.8103C140.675 26.3248 139.899 24.1607 139.899 21.318V9.60105H142.698V21.049C142.698 23.1747 143.237 24.7882 144.314 25.8895C145.392 26.9907 146.929 27.5414 148.926 27.5414C151.108 27.5414 152.829 26.9011 154.09 25.6206C155.352 24.3144 155.983 22.5089 155.983 20.2039V9.60105H158.781Z" fill="black"/>
<path d="M172.178 30C170.496 30 168.88 29.7695 167.33 29.3085C165.805 28.8219 164.61 28.22 163.742 27.5029L165.004 25.3516C165.871 26.0175 166.962 26.5682 168.276 27.0035C169.59 27.4133 170.956 27.6182 172.375 27.6182C174.267 27.6182 175.66 27.3365 176.554 26.773C177.474 26.184 177.933 25.3645 177.933 24.3144C177.933 23.5717 177.684 22.9955 177.184 22.5857C176.685 22.1503 176.054 21.8302 175.292 21.6253C174.53 21.3948 173.518 21.1771 172.257 20.9722C170.575 20.6649 169.222 20.3576 168.197 20.0502C167.172 19.7173 166.292 19.1667 165.556 18.3983C164.846 17.63 164.491 16.5672 164.491 15.2098C164.491 13.5195 165.214 12.1365 166.659 11.0609C168.105 9.98522 170.115 9.44739 172.691 9.44739C174.031 9.44739 175.371 9.62667 176.711 9.98522C178.052 10.3182 179.155 10.7663 180.023 11.3298L178.801 13.5195C177.093 12.367 175.056 11.7908 172.691 11.7908C170.904 11.7908 169.55 12.0981 168.63 12.7128C167.737 13.3274 167.29 14.1342 167.29 15.133C167.29 15.9013 167.54 16.5159 168.039 16.9769C168.565 17.4379 169.209 17.7837 169.971 18.0142C170.733 18.2191 171.784 18.4368 173.124 18.6672C174.78 18.9746 176.107 19.2819 177.106 19.5892C178.104 19.8966 178.958 20.4216 179.668 21.1643C180.377 21.907 180.732 22.9314 180.732 24.2376C180.732 26.0047 179.97 27.4133 178.446 28.4633C176.948 29.4878 174.859 30 172.178 30Z" fill="black"/>
<path d="M203.961 20.5496H186.616C186.774 22.6497 187.601 24.3528 189.099 25.659C190.597 26.9395 192.489 27.5798 194.776 27.5798C196.064 27.5798 197.246 27.3621 198.324 26.9267C199.401 26.4657 200.334 25.7998 201.122 24.9291L202.699 26.6962C201.779 27.7719 200.623 28.5914 199.23 29.1548C197.864 29.7183 196.353 30 194.697 30C192.568 30 190.676 29.5646 189.021 28.6938C187.391 27.7975 186.117 26.5682 185.197 25.0059C184.277 23.4436 183.817 21.6765 183.817 19.7045C183.817 17.7325 184.251 15.9653 185.118 14.4031C186.011 12.8408 187.22 11.6243 188.745 10.7535C190.295 9.88277 192.03 9.44739 193.948 9.44739C195.866 9.44739 197.588 9.88277 199.112 10.7535C200.636 11.6243 201.832 12.8408 202.699 14.4031C203.566 15.9397 204 17.7068 204 19.7045L203.961 20.5496ZM193.948 11.7908C191.951 11.7908 190.269 12.4182 188.902 13.6732C187.562 14.9025 186.8 16.5159 186.616 18.5136H201.319C201.136 16.5159 200.36 14.9025 198.994 13.6732C197.653 12.4182 195.972 11.7908 193.948 11.7908Z" fill="black"/>
<path d="M30.3079 18.4208C26.7999 14.9521 26.3104 8.84442 29.8183 5.37587C33.3263 1.90709 39.0138 1.90716 42.5218 5.37587L42.9507 5.83575C46.5304 2.90459 52.1964 2.66782 55.4981 5.93244C59.0061 9.40115 59.0061 15.025 55.4981 18.4936L55.3367 18.5834C55.4308 19.1993 55.2298 19.854 54.7491 20.329C53.9593 21.1102 52.6784 21.11 51.8885 20.3289L51.8959 20.3559C52.6859 21.1372 52.6514 22.4035 51.8614 23.1846C51.0714 23.9658 49.7906 23.9656 49.0008 23.1845L49.0081 23.2115C49.7981 23.9926 49.7635 25.2591 48.9736 26.04C48.1836 26.8212 46.9028 26.821 46.1129 26.04L45.5571 25.4947C46.3472 26.2758 46.347 27.5421 45.5571 28.3231L43.5501 30.3078C42.7601 31.0889 41.4793 31.0548 40.6894 30.2737C39.8994 29.4925 39.8997 28.2262 40.6895 27.4451L40.6622 27.4523C39.8722 28.2334 38.5915 28.1994 37.8016 27.4182C37.0115 26.6371 37.0117 25.3707 37.8016 24.5896L37.7745 24.5969C36.9844 25.378 35.7037 25.3438 34.9137 24.5627C34.1238 23.7816 34.124 22.5153 34.9138 21.7342L34.8865 21.7414C34.0965 22.5224 32.8158 22.4884 32.0259 21.7073C31.4289 21.117 31.2832 20.2495 31.5885 19.5238L30.3079 18.4208Z" fill="white"/>
<path d="M43.55 30.3078L44.2532 31.0189L44.2532 31.0189L43.55 30.3078ZM40.6893 30.2737L41.3924 29.5626L41.3924 29.5626L40.6893 30.2737ZM40.6894 27.4451L39.9862 26.7341L39.9863 26.7341L40.6894 27.4451ZM42.6965 25.4605L41.9934 24.7494L41.9934 24.7494L42.6965 25.4605ZM45.5571 25.4947L44.854 26.2058L44.8539 26.2056L45.5571 25.4947ZM45.5571 28.3231L44.8539 27.6121L44.854 27.612L45.5571 28.3231ZM40.6622 27.4523L41.3652 28.1634L41.3652 28.1634L40.6622 27.4523ZM37.8016 27.4183L38.5046 26.7071L38.5047 26.7072L37.8016 27.4183ZM37.8016 24.5896L38.5047 25.3007L38.5047 25.3007L37.8016 24.5896ZM39.8086 22.6051L39.1055 21.894L39.1055 21.8939L39.8086 22.6051ZM42.6693 22.6391L41.9662 23.3501L41.9662 23.3501L42.6693 22.6391ZM42.6693 25.4678L43.3725 26.1788L43.3724 26.1789L42.6693 25.4678ZM37.7744 24.5969L38.4776 25.3079L38.4775 25.308L37.7744 24.5969ZM34.9136 24.5627L34.2106 25.2738L34.2105 25.2737L34.9136 24.5627ZM34.9137 21.7342L34.2105 21.0232L34.2106 21.0231L34.9137 21.7342ZM36.9209 19.7496L37.6241 20.4606L37.624 20.4607L36.9209 19.7496ZM39.7815 19.7836L39.0784 20.4948L39.0782 20.4946L39.7815 19.7836ZM39.7815 22.6122L39.0783 21.9012L39.0784 21.9012L39.7815 22.6122ZM34.8865 21.7413L35.5896 22.4524L35.5896 22.4525L34.8865 21.7413ZM32.0259 21.7073L32.729 20.9962L32.729 20.9963L32.0259 21.7073ZM32.026 18.8787L32.7291 19.5897L32.7291 19.5897L32.026 18.8787ZM34.033 16.894L33.3299 16.1829L33.33 16.1828L34.033 16.894ZM36.8937 16.9282L36.1907 17.6393L36.1906 17.6392L36.8937 16.9282ZM36.8937 19.7567L37.5968 20.4678L37.5968 20.4678L36.8937 19.7567ZM45.157 7.98799C45.5495 7.5995 46.1827 7.60279 46.5712 7.99534C46.9596 8.38789 46.9564 9.02105 46.5638 9.40954L45.157 7.98799ZM42.4003 12.123L41.6915 11.4176L41.6969 11.4123L42.4003 12.123ZM36.4524 12.2038L35.7493 12.9149L35.0302 12.2038L35.7493 11.4927L36.4524 12.2038ZM41.6182 5.68948C42.0109 5.30116 42.6441 5.30472 43.0324 5.69743C43.4207 6.09015 43.4172 6.7233 43.0245 7.11163L41.6182 5.68948ZM43.0083 7.12761C42.6156 7.51593 41.9825 7.51236 41.5941 7.11965C41.2058 6.72693 41.2094 6.09377 41.6021 5.70546L43.0083 7.12761ZM55.4981 5.93246L56.2012 5.22137L56.2012 5.22138L55.4981 5.93246ZM56.2012 19.2047C55.8085 19.593 55.1753 19.5894 54.787 19.1967C54.3987 18.804 54.4023 18.1708 54.795 17.7825L56.2012 19.2047ZM45.2145 9.44483C44.8218 9.05651 44.8182 8.42335 45.2065 8.03063C45.5949 7.63792 46.228 7.63436 46.6207 8.02268L45.2145 9.44483ZM54.7836 17.5005L54.0806 18.2117L54.0805 18.2116L54.7836 17.5005ZM54.7491 20.329L54.0459 19.618L54.0461 19.6178L54.7491 20.329ZM51.1854 21.04C50.7927 20.6517 50.7891 20.0185 51.1774 19.6258C51.5658 19.2331 52.1989 19.2295 52.5916 19.6178L51.1854 21.04ZM45.2212 15.1622C44.8285 14.7739 44.825 14.1407 45.2133 13.748C45.6016 13.3553 46.2348 13.3518 46.6275 13.7401L45.2212 15.1622ZM51.8959 20.3559L52.5991 19.6449L52.5991 19.6449L51.8959 20.3559ZM51.8614 23.1846L51.1583 22.4735L51.1584 22.4735L51.8614 23.1846ZM49.0008 23.1845L49.704 22.4734L49.704 22.4735L49.0008 23.1845ZM42.3261 17.9907C41.9334 17.6024 41.9299 16.9692 42.3182 16.5765C42.7065 16.1838 43.3397 16.1802 43.7324 16.5686L42.3261 17.9907ZM48.305 23.9226C47.9122 23.5343 47.9086 22.9011 48.2969 22.5084C48.6852 22.1157 49.3184 22.1121 49.7111 22.5004L48.305 23.9226ZM48.9736 26.04L48.2705 25.3289L48.2706 25.3289L48.9736 26.04ZM45.4098 26.7511C45.017 26.3628 45.0134 25.7297 45.4017 25.337C45.79 24.9442 46.4232 24.9406 46.8159 25.3289L45.4098 26.7511ZM31.8224 18.5121C32.2151 18.9004 32.2186 19.5336 31.8303 19.9263C31.442 20.319 30.8089 20.3226 30.4161 19.9343L31.8224 18.5121ZM30.3079 18.4209L29.6047 19.132L29.6047 19.132L30.3079 18.4209ZM29.8183 5.37589L30.5214 6.08696L30.5214 6.08697L29.8183 5.37589ZM42.5218 5.37589L43.2249 4.66481L43.2269 4.66678L42.5218 5.37589ZM43.4733 4.91181C43.8649 5.30123 43.8667 5.93439 43.4773 6.32602C43.0879 6.71765 42.4547 6.71945 42.0631 6.33003L43.4733 4.91181ZM44.2532 31.0189C43.0518 32.2068 41.1435 32.1292 39.9862 30.9847L41.3924 29.5626C41.8149 29.9804 42.4683 29.9711 42.8469 29.5967L44.2532 31.0189ZM39.9862 30.9848C38.8002 29.812 38.8009 27.9065 39.9862 26.7341L41.3926 28.1561C40.9984 28.546 40.9985 29.1731 41.3924 29.5626L39.9862 30.9848ZM39.9863 26.7341L41.9934 24.7494L43.3996 26.1716L41.3925 28.1562L39.9863 26.7341ZM41.9934 24.7494C43.1947 23.5616 45.103 23.6391 46.2603 24.7837L44.8539 26.2056C44.4316 25.788 43.7782 25.7972 43.3996 26.1716L41.9934 24.7494ZM46.2601 24.7835C47.4462 25.9562 47.4459 27.8618 46.2602 29.0342L44.854 27.612C45.2481 27.2223 45.2481 26.5954 44.854 26.2058L46.2601 24.7835ZM46.2602 29.0342L44.2532 31.0189L42.8469 29.5968L44.8539 27.6121L46.2602 29.0342ZM41.3652 28.1634C40.1639 29.3512 38.2558 29.2739 37.0984 28.1293L38.5047 26.7072C38.927 27.1249 39.5803 27.1157 39.9591 26.7412L41.3652 28.1634ZM37.0985 28.1294C35.9123 26.9567 35.9128 25.0509 37.0985 23.8786L38.5047 25.3007C38.1105 25.6905 38.1105 26.3175 38.5046 26.7071L37.0985 28.1294ZM37.0985 23.8786L39.1055 21.894L40.5117 23.3162L38.5047 25.3007L37.0985 23.8786ZM39.1055 21.8939C40.3069 20.7062 42.2152 20.7836 43.3725 21.928L41.9662 23.3501C41.544 22.9326 40.8905 22.9417 40.5116 23.3162L39.1055 21.8939ZM43.3724 21.928C44.5584 23.1006 44.558 25.0064 43.3725 26.1788L41.9662 24.7568C42.3603 24.367 42.3603 23.7398 41.9662 23.3501L43.3724 21.928ZM43.3724 26.1789L41.3652 28.1634L39.9591 26.7412L41.9662 24.7567L43.3724 26.1789ZM38.4775 25.308C37.2761 26.4958 35.3679 26.4181 34.2106 25.2738L35.6167 23.8516C36.0393 24.2694 36.6927 24.2601 37.0714 23.8857L38.4775 25.308ZM34.2105 25.2737C33.0247 24.101 33.0251 22.1955 34.2105 21.0232L35.6169 22.4452C35.2228 22.835 35.2228 23.462 35.6168 23.8517L34.2105 25.2737ZM34.2106 21.0231L36.2178 19.0385L37.624 20.4607L35.6168 22.4453L34.2106 21.0231ZM36.2177 19.0386C37.4191 17.8504 39.3274 17.928 40.4847 19.0726L39.0782 20.4946C38.656 20.0769 38.0027 20.0861 37.6241 20.4606L36.2177 19.0386ZM40.4845 19.0725C41.6707 20.2452 41.6702 22.151 40.4846 23.3233L39.0784 21.9012C39.4725 21.5114 39.4725 20.8844 39.0784 20.4948L40.4845 19.0725ZM40.4846 23.3233L38.4776 25.3079L37.0713 23.8858L39.0783 21.9012L40.4846 23.3233ZM35.5896 22.4525C34.3883 23.6401 32.4802 23.563 31.3227 22.4183L32.729 20.9963C33.1514 21.4139 33.8047 21.4047 34.1834 21.0302L35.5896 22.4525ZM31.3228 22.4184C30.1369 21.2457 30.1372 19.34 31.3228 18.1676L32.7291 19.5897C32.3349 19.9795 32.3349 20.6066 32.729 20.9962L31.3228 22.4184ZM31.3228 18.1676L33.3299 16.1829L34.7361 17.605L32.7291 19.5897L31.3228 18.1676ZM33.33 16.1828C34.5315 14.9951 36.4394 15.0726 37.5969 16.2171L36.1906 17.6392C35.7681 17.2215 35.1148 17.2307 34.736 17.6051L33.33 16.1828ZM37.5968 16.2171C38.7828 17.3897 38.7823 19.2955 37.5968 20.4678L36.1906 19.0456C36.5847 18.656 36.5846 18.0288 36.1907 17.6393L37.5968 16.2171ZM37.5968 20.4678L35.5896 22.4524L34.1834 21.0303L36.1906 19.0456L37.5968 20.4678ZM46.5638 9.40954L43.1038 12.8338L41.6969 11.4123L45.157 7.98799L46.5638 9.40954ZM43.1091 12.8285C41.0456 14.9018 37.7759 14.9186 35.7493 12.9149L37.1555 11.4927C38.384 12.7074 40.3911 12.7243 41.6915 11.4176L43.1091 12.8285ZM35.7493 11.4927L41.6182 5.68948L43.0245 7.11163L37.1556 12.9149L35.7493 11.4927ZM41.6021 5.70546C45.4315 1.91899 52.2388 1.30338 56.2012 5.22137L54.795 6.64354C51.7415 3.62428 46.195 3.97667 43.0083 7.12761L41.6021 5.70546ZM56.2012 5.22138C60.105 9.08149 60.1051 15.3446 56.2012 19.2047L54.795 17.7825C57.9071 14.7053 57.9071 9.72082 54.795 6.64353L56.2012 5.22138ZM46.6207 8.02268L55.4867 16.7895L54.0805 18.2116L45.2145 9.44483L46.6207 8.02268ZM55.4866 16.7894C56.6953 17.9841 56.6154 19.8904 55.4521 21.0402L54.0461 19.6178C54.4631 19.2056 54.4522 18.5791 54.0806 18.2117L55.4866 16.7894ZM55.4523 21.04C54.2727 22.2067 52.3648 22.2061 51.1854 21.04L52.5916 19.6178C52.9921 20.0138 53.6458 20.0137 54.0459 19.618L55.4523 21.04ZM46.6275 13.7401L52.5991 19.6449L51.1928 21.067L45.2212 15.1622L46.6275 13.7401ZM52.5991 19.6449C53.8074 20.8399 53.7275 22.7458 52.5645 23.8957L51.1584 22.4735C51.5753 22.0612 51.5645 21.4346 51.1928 21.0669L52.5991 19.6449ZM52.5646 23.8956C51.3849 25.0622 49.4771 25.0619 48.2977 23.8955L49.704 22.4735C50.1043 22.8693 50.758 22.8694 51.1583 22.4735L52.5646 23.8956ZM48.2977 23.8956L42.3261 17.9907L43.7324 16.5686L49.704 22.4734L48.2977 23.8956ZM49.7111 22.5004C50.9196 23.6952 50.8396 25.6015 49.6766 26.7512L48.2706 25.3289C48.6874 24.9168 48.6766 24.29 48.305 23.9226L49.7111 22.5004ZM49.6767 26.7511C48.4971 27.9175 46.5892 27.9172 45.4098 26.7511L46.8159 25.3289C47.2163 25.7248 47.8702 25.7248 48.2705 25.3289L49.6767 26.7511ZM30.4161 19.9343L29.6047 19.132L31.011 17.7098L31.8224 18.5121L30.4161 19.9343ZM29.6047 19.132C25.7715 15.3416 25.1444 8.59112 29.1152 4.66481L30.5214 6.08697C27.4765 9.09776 27.8283 14.5627 31.011 17.7098L29.6047 19.132ZM29.1152 4.66482C33.0128 0.810789 39.3273 0.810889 43.2249 4.66481L41.8186 6.08697C38.7002 3.00348 33.6398 3.00343 30.5214 6.08696L29.1152 4.66482ZM43.2269 4.66678L43.4733 4.91181L42.0631 6.33003L41.8167 6.085L43.2269 4.66678Z" fill="black"/>
</svg>
